<svg width="349" height="80" viewBox="0 0 349 80" fill="none" xmlns="http://www.w3.org/2000/svg">
<g clip-path="url(#clip0_1_2)">
<g clip-path="url(#clip1_1_2)">
<mask id="mask0_1_2" style="mask-type:luminance" maskUnits="userSpaceOnUse" x="0" y="0" width="80" height="80">
<path d="M80 0H0V80H80V0Z" fill="white"/>
</mask>
<g mask="url(#mask0_1_2)">
<path fill-rule="evenodd" clip-rule="evenodd" d="M47.4481 0H34.1497L48.208 56.36L47.4481 0ZM20.4955 0H0V80H21.2V11.304H19.28L20.4955 0ZM33.36 80H45.1269L33.36 34.216V80ZM59.6 80H80V0H59.6V80Z" fill="#1D4ED8"/>
</g>
</g>
<path d="M144.16 62H133.216L114.912 34.288V62H103.968V17.072H114.912L133.216 44.912V17.072H144.16V62ZM149.917 44.08C149.917 40.4107 150.6 37.1893 151.965 34.416C153.373 31.6427 155.272 29.5093 157.661 28.016C160.05 26.5227 162.717 25.776 165.661 25.776C168.178 25.776 170.376 26.288 172.253 27.312C174.173 28.336 175.645 29.68 176.669 31.344V26.288H187.613V62H176.669V56.944C175.602 58.608 174.109 59.952 172.189 60.976C170.312 62 168.114 62.512 165.597 62.512C162.696 62.512 160.05 61.7653 157.661 60.272C155.272 58.736 153.373 56.5813 151.965 53.808C150.6 50.992 149.917 47.7493 149.917 44.08ZM176.669 44.144C176.669 41.4133 175.901 39.2587 174.365 37.68C172.872 36.1013 171.037 35.312 168.861 35.312C166.685 35.312 164.829 36.1013 163.293 37.68C161.8 39.216 161.053 41.3493 161.053 44.08C161.053 46.8107 161.8 48.9867 163.293 50.608C164.829 52.1867 166.685 52.976 168.861 52.976C171.037 52.976 172.872 52.1867 174.365 50.608C175.901 49.0293 176.669 46.8747 176.669 44.144ZM241.099 25.904C245.536 25.904 249.056 27.248 251.659 29.936C254.304 32.624 255.627 36.3573 255.627 41.136V62H244.747V42.608C244.747 40.304 244.128 38.5333 242.891 37.296C241.696 36.016 240.032 35.376 237.899 35.376C235.765 35.376 234.08 36.016 232.843 37.296C231.648 38.5333 231.051 40.304 231.051 42.608V62H220.171V42.608C220.171 40.304 219.552 38.5333 218.315 37.296C217.12 36.016 215.456 35.376 213.323 35.376C211.189 35.376 209.504 36.016 208.267 37.296C207.072 38.5333 206.475 40.304 206.475 42.608V62H195.531V26.288H206.475V30.768C207.584 29.2747 209.035 28.1013 210.827 27.248C212.619 26.352 214.645 25.904 216.907 25.904C219.595 25.904 221.984 26.48 224.075 27.632C226.208 28.784 227.872 30.4267 229.067 32.56C230.304 30.5973 231.989 28.9973 234.123 27.76C236.256 26.5227 238.581 25.904 241.099 25.904ZM268.785 22.576C266.865 22.576 265.286 22.0213 264.049 20.912C262.854 19.76 262.257 18.352 262.257 16.688C262.257 14.9813 262.854 13.5733 264.049 12.464C265.286 11.312 266.865 10.736 268.785 10.736C270.662 10.736 272.198 11.312 273.393 12.464C274.63 13.5733 275.249 14.9813 275.249 16.688C275.249 18.352 274.63 19.76 273.393 20.912C272.198 22.0213 270.662 22.576 268.785 22.576ZM274.225 26.288V62H263.281V26.288H274.225ZM293.1 32.24C294.38 30.2773 295.98 28.7413 297.9 27.632C299.82 26.48 301.953 25.904 304.3 25.904V37.488H301.292C298.561 37.488 296.513 38.0853 295.148 39.28C293.782 40.432 293.1 42.48 293.1 45.424V62H282.156V26.288H293.1V32.24ZM307.355 44.08C307.355 40.4107 308.037 37.1893 309.403 34.416C310.811 31.6427 312.709 29.5093 315.099 28.016C317.488 26.5227 320.155 25.776 323.099 25.776C325.616 25.776 327.813 26.288 329.691 27.312C331.611 28.336 333.083 29.68 334.107 31.344V26.288H345.051V62H334.107V56.944C333.04 58.608 331.547 59.952 329.627 60.976C327.749 62 325.552 62.512 323.035 62.512C320.133 62.512 317.488 61.7653 315.099 60.272C312.709 58.736 310.811 56.5813 309.403 53.808C308.037 50.992 307.355 47.7493 307.355 44.08ZM334.107 44.144C334.107 41.4133 333.339 39.2587 331.803 37.68C330.309 36.1013 328.475 35.312 326.299 35.312C324.123 35.312 322.267 36.1013 320.731 37.68C319.237 39.216 318.491 41.3493 318.491 44.08C318.491 46.8107 319.237 48.9867 320.731 50.608C322.267 52.1867 324.123 52.976 326.299 52.976C328.475 52.976 330.309 52.1867 331.803 50.608C333.339 49.0293 334.107 46.8747 334.107 44.144Z" fill="#1D4ED8"/>
</g>
<defs>
<clipPath id="clip0_1_2">
<rect width="349" height="80" fill="white"/>
</clipPath>
<clipPath id="clip1_1_2">
<rect width="80" height="80" fill="white"/>
</clipPath>
</defs>
</svg>
